<svg viewBox="-260 -1700 2620 2380" xmlns="http://www.w3.org/2000/svg" role="img" aria-label="p|d"><rect x="-260" y="-1700" width="2620" height="2380" rx="240" fill="#08111A"/><path d="M912.0 -505.0C912.0 -227.7 714.1 -3.0 470.0 -3.0C225.9 -3.0 28.0 -227.7 28.0 -505.0C28.0 -782.3 225.9 -1007.0 470.0 -1007.0C714.1 -1007.0 912.0 -782.3 912.0 -505.0Z M746.0 -505.0C746.0 -273.0 614.8 -85.0 453.0 -85.0C291.2 -85.0 160.0 -273.0 160.0 -505.0C160.0 -737.0 291.2 -925.0 453.0 -925.0C614.8 -925.0 746.0 -737.0 746.0 -505.0Z" fill="#B85025" fill-rule="evenodd"/><path d="M0.0 -1000.0L160.0 -1000.0L160.0 440.0L0.0 440.0Z" fill="#B85025"/><path d="M0.0 357.0C0.0 405.1 -63.0 431.7 -63.0 440.0L0.0 440.0Z M160.0 357.0C160.0 405.1 223.0 431.7 223.0 440.0L160.0 440.0Z" fill="#B85025"/><path d="M160.0 -1000.0L-69.0 -1000.0L-69.0 -963.0C0.0 -963.0 0.0 -963.0 0.0 -896.0Z" fill="#B85025"/><path d="M1127.0 -495.0C1127.0 -772.3 1324.9 -997.0 1569.0 -997.0C1813.1 -997.0 2011.0 -772.3 2011.0 -495.0C2011.0 -217.7 1813.1 7.0 1569.0 7.0C1324.9 7.0 1127.0 -217.7 1127.0 -495.0Z M1293.0 -495.0C1293.0 -727.0 1424.2 -915.0 1586.0 -915.0C1747.8 -915.0 1879.0 -727.0 1879.0 -495.0C1879.0 -263.0 1747.8 -75.0 1586.0 -75.0C1424.2 -75.0 1293.0 -263.0 1293.0 -495.0Z" fill="#A8BCC7" fill-rule="evenodd"/><path d="M1879.0 -1453.5L2039.0 -1453.5L2039.0 0.0L1879.0 0.0Z" fill="#A8BCC7"/><path d="M1879.0 -1453.5L2039.0 -1506.5L2039.0 -1453.5Z" fill="#A8BCC7"/><path d="M2039.0 -1453.5L1848.0 -1453.5L1848.0 -1416.5C1879.0 -1416.5 1879.0 -1416.5 1879.0 -1349.5Z" fill="#A8BCC7"/><path d="M1879.0 0.0L2108.0 0.0L2108.0 -37.0C2039.0 -37.0 2039.0 -37.0 2039.0 -104.0Z" fill="#A8BCC7"/><rect x="974.0" y="-1370.0" width="91.0" height="1634.0" fill="#A8BCC7"/></svg>
